<svg xmlns="http://www.w3.org/2000/svg" xmlns:xlink="http://www.w3.org/1999/xlink" width="62.89" height="70" viewBox="0 0 62.89 70">
  <defs>
    <clipPath id="clip-path">
      <rect id="Rectangle_8937" data-name="Rectangle 8937" width="62.89" height="70" fill="none"/>
    </clipPath>
  </defs>
  <g id="Easy_Booking" data-name="Easy Booking" transform="translate(0 0)">
    <g id="Group_22955" data-name="Group 22955" transform="translate(0 0.001)" clip-path="url(#clip-path)">
      <path id="Path_55690" data-name="Path 55690" d="M4.685,70A4.69,4.69,0,0,1,0,65.316V9.448A4.7,4.7,0,0,1,4.692,4.755H9.659V2.648A2.649,2.649,0,0,1,12.305,0h.478A2.649,2.649,0,0,1,15.43,2.648V4.755H47.459V2.648A2.649,2.649,0,0,1,50.106,0h.478A2.649,2.649,0,0,1,53.23,2.648V4.755H58.2A4.7,4.7,0,0,1,62.89,9.448V65.316A4.691,4.691,0,0,1,58.2,70ZM1.046,65.316a3.644,3.644,0,0,0,3.639,3.639H58.2a3.643,3.643,0,0,0,3.639-3.639v-12.5L50.2,64.464a4.665,4.665,0,0,1-3.318,1.374H4.692A4.653,4.653,0,0,1,1.875,64.9l-.829-.625Zm0-4.17a3.65,3.65,0,0,0,3.646,3.646h40.48A2.9,2.9,0,0,0,48.065,61.9V54.954A3.943,3.943,0,0,1,52,51.014H58.95a2.9,2.9,0,0,0,2.892-2.893V20.673H16.988a.524.524,0,0,1,0-1.047H61.842V9.448A3.65,3.65,0,0,0,58.2,5.8H48.505V9.38a1.6,1.6,0,0,0,1.6,1.6.523.523,0,1,1,0,1.046A2.649,2.649,0,0,1,47.459,9.38V5.8H10.705V9.38a1.6,1.6,0,0,0,1.6,1.6.523.523,0,1,1,0,1.046A2.649,2.649,0,0,1,9.659,9.38V5.8H4.692A3.651,3.651,0,0,0,1.046,9.448V19.625h11.78a.524.524,0,0,1,0,1.047H1.046ZM52,52.06a2.9,2.9,0,0,0-2.892,2.893V61.9a3.957,3.957,0,0,1-.113.928l-.431,1.788,13.1-13.1-1.788.431a3.965,3.965,0,0,1-.929.112Zm-1.9-51.013a1.6,1.6,0,0,0-1.6,1.6V4.755h3.679V2.648a1.6,1.6,0,0,0-1.6-1.6Zm-37.8,0a1.6,1.6,0,0,0-1.6,1.6V4.755h3.679V2.648a1.6,1.6,0,0,0-1.6-1.6ZM36.038,59.6a1.516,1.516,0,0,1-1.514-1.514.522.522,0,0,1,1.044-.025l.022.493h5.869V52.658h-5.89v1.9a.523.523,0,1,1-1.045,0V53.126a1.516,1.516,0,0,1,1.514-1.514h4.954a1.517,1.517,0,0,1,1.514,1.514v4.955A1.517,1.517,0,0,1,40.992,59.6Zm-14.14,0a1.517,1.517,0,0,1-1.514-1.514V53.126A1.517,1.517,0,0,1,21.9,51.612h4.955a1.517,1.517,0,0,1,1.514,1.514v4.955A1.517,1.517,0,0,1,26.853,59.6Zm-.468-1.046H27.32V52.658H21.43ZM7.758,59.6a1.517,1.517,0,0,1-1.515-1.514V53.126a1.517,1.517,0,0,1,1.515-1.514h4.954a1.517,1.517,0,0,1,1.515,1.514v4.955A1.517,1.517,0,0,1,12.712,59.6ZM7.29,58.549h5.891V52.658H7.29ZM50.177,47.033a1.517,1.517,0,0,1-1.514-1.514V40.564a1.517,1.517,0,0,1,1.514-1.514h4.955a1.516,1.516,0,0,1,1.513,1.514v4.955a1.516,1.516,0,0,1-1.513,1.514Zm-.468-1.046H55.6V40.1H49.709Zm-13.671.738a1.516,1.516,0,0,1-1.514-1.515V40.255a1.516,1.516,0,0,1,1.514-1.515h4.955a1.517,1.517,0,0,1,1.514,1.515v4.954a1.517,1.517,0,0,1-1.514,1.515Zm-.468-1.047h5.891V39.786H35.57ZM21.9,46.724a1.517,1.517,0,0,1-1.514-1.515V40.255A1.517,1.517,0,0,1,21.9,38.74h4.955a1.517,1.517,0,0,1,1.514,1.515v4.954a1.517,1.517,0,0,1-1.514,1.515Zm-.468-1.047H27.32V39.786H21.43ZM7.758,46.724a1.517,1.517,0,0,1-1.515-1.515V40.255A1.517,1.517,0,0,1,7.758,38.74h4.954a1.517,1.517,0,0,1,1.515,1.515v4.954a1.517,1.517,0,0,1-1.515,1.515ZM7.29,45.677h5.891V39.786H7.29ZM50.177,33.853a1.517,1.517,0,0,1-1.514-1.514V27.383a1.517,1.517,0,0,1,1.514-1.514h4.955a1.516,1.516,0,0,1,1.513,1.514v4.955a1.516,1.516,0,0,1-1.513,1.514Zm-.468-1.046H55.6V26.916H49.709ZM36.038,33.853a1.516,1.516,0,0,1-1.514-1.514V27.383a1.516,1.516,0,0,1,1.514-1.514h4.955a1.517,1.517,0,0,1,1.514,1.514v4.955a1.517,1.517,0,0,1-1.514,1.514Zm-.468-1.046h5.891V26.916H35.57ZM21.9,33.853a1.517,1.517,0,0,1-1.514-1.514V27.383A1.517,1.517,0,0,1,21.9,25.869h4.955a1.517,1.517,0,0,1,1.514,1.514v4.955a1.517,1.517,0,0,1-1.514,1.514Zm-.468-1.046H27.32V26.916H21.43ZM7.758,33.853a1.517,1.517,0,0,1-1.515-1.514V27.383a1.517,1.517,0,0,1,1.515-1.514h4.954a1.517,1.517,0,0,1,1.515,1.514v4.955a1.517,1.517,0,0,1-1.515,1.514ZM7.29,32.806h5.891V26.916H7.29Z" transform="translate(0 -0.001)" fill="#050605"/>
    </g>
  </g>
</svg>
