<svg id="One-Stop_Shop" data-name="One-Stop Shop" xmlns="http://www.w3.org/2000/svg" xmlns:xlink="http://www.w3.org/1999/xlink" width="70" height="42.792" viewBox="0 0 70 42.792">
  <defs>
    <clipPath id="clip-path">
      <rect id="Rectangle_8938" data-name="Rectangle 8938" width="70" height="42.792" fill="none"/>
    </clipPath>
  </defs>
  <g id="Group_22956" data-name="Group 22956" transform="translate(0 0)" clip-path="url(#clip-path)">
    <path id="Path_55691" data-name="Path 55691" d="M30.663,42.792A3.114,3.114,0,0,1,27.589,40.1l-.072-.517L27,39.629a3.27,3.27,0,0,1-.457.035,3.1,3.1,0,0,1-3.08-2.716l-.068-.524-.523.078a3.149,3.149,0,0,1-.458.036,3.109,3.109,0,0,1-3.078-2.685l-.074-.534-.535.064a3.255,3.255,0,0,1-.443.031,3.114,3.114,0,0,1-2.76-4.534l.364-.7-3.968-.264-.16.288a3.286,3.286,0,0,1-2.876,1.7,3.194,3.194,0,0,1-.4-.025L.459,28.894a.523.523,0,0,1,.064-1.041l8.082.991a2.272,2.272,0,0,0,.273.015A2.245,2.245,0,0,0,11.1,26.893L13.857,4.528a2.242,2.242,0,0,0-1.953-2.5L3.888,1.041A.523.523,0,0,1,3.951,0l8.083.991a3.288,3.288,0,0,1,2.86,3.663l-.146,1.194,4.271.29,1.411-2.753a3.445,3.445,0,0,1,3.04-1.851,3.405,3.405,0,0,1,.9.122L26.7,2.3a.523.523,0,0,1-.14,1.026.534.534,0,0,1-.139-.019l-2.328-.643a2.37,2.37,0,0,0-2.732,1.2l-1.568,3.06a.52.52,0,0,1-.465.285l-4.707-.32L12.157,26.882l4.587.3.165-.162a3.068,3.068,0,0,1,1.744-.851,3.151,3.151,0,0,1,.435-.03,3.111,3.111,0,0,1,2.941,2.124l.176.528.513-.212a3.129,3.129,0,0,1,1.194-.235,3.1,3.1,0,0,1,2.977,2.235l.152.521.513-.176a3.239,3.239,0,0,1,.6-.143,3.2,3.2,0,0,1,.429-.028,3.109,3.109,0,0,1,3.062,2.6l.086.523.521-.1a3.141,3.141,0,0,1,.576-.054A3.112,3.112,0,0,1,35.3,38.715L33.15,41.558a3.084,3.084,0,0,1-2.054,1.2,3.262,3.262,0,0,1-.433.03m2.165-8.02a2.242,2.242,0,0,0-.285.018,2.053,2.053,0,0,0-1.366.8l-2.151,2.842a2.065,2.065,0,1,0,3.293,2.492l2.152-2.841a2.064,2.064,0,0,0-1.643-3.311M28.58,31.8a2.266,2.266,0,0,0-.285.018,2.051,2.051,0,0,0-1.365.8L24.9,35.306A2.066,2.066,0,0,0,28.191,37.8l2.035-2.685a2.071,2.071,0,0,0-.4-2.9A2.038,2.038,0,0,0,28.58,31.8m-4.669-2.41a2.05,2.05,0,0,0-1.65.819l-1.493,1.971a2.066,2.066,0,0,0,3.3,2.493L25.556,32.7a2.065,2.065,0,0,0-1.645-3.312m-4.826-2.2a2.066,2.066,0,0,0-1.65.818l-.793,1.046a2.066,2.066,0,0,0,3.293,2.5l.793-1.046a2.065,2.065,0,0,0-1.643-3.314" transform="translate(0 0)" fill="#050605"/>
    <path id="Path_55692" data-name="Path 55692" d="M39.5,39.4a3.557,3.557,0,0,1-.4-.023.526.526,0,0,1-.457-.581.522.522,0,0,1,.518-.462,3.3,3.3,0,0,0,.341.02,2.369,2.369,0,0,0,1.792-.821l1.654-1.921-2.9-2.5a.523.523,0,0,1,.342-.919.518.518,0,0,1,.341.127L44,35.152a2.382,2.382,0,0,0,1.284.57,2.306,2.306,0,0,0,.277.016,2.361,2.361,0,0,0,1.791-.822L49,33.008,45.743,30.2a.518.518,0,0,1-.18-.357.522.522,0,0,1,.862-.435l3.53,3.043.135.1a2.371,2.371,0,0,0,3.338-.245l.53-.615a1.726,1.726,0,0,0-.181-2.433L40.056,17.427l-.174-.011a9.827,9.827,0,0,1-5.56-2.441l-.415-.358-2.418,3.15a6.945,6.945,0,0,1-5.537,2.746,7.067,7.067,0,0,1-2.5-.46l-.3-.114A2.258,2.258,0,0,1,22,16.693L29.3,4.136a4.485,4.485,0,0,1,3.455-2.207l4.324-.4A.537.537,0,0,1,37.64,2a.524.524,0,0,1-.473.568l-4.319.4A3.429,3.429,0,0,0,30.2,4.663L22.9,17.219a1.209,1.209,0,0,0-.092,1.017,1.2,1.2,0,0,0,.714.726l.3.114a6,6,0,0,0,2.124.391,5.908,5.908,0,0,0,4.713-2.337l2.795-3.637a.525.525,0,0,1,.4-.2.533.533,0,0,1,.41.18,9.045,9.045,0,0,0,6.113,2.922l.121,0c2.457-.042,4.841-1.459,7.082-4.213a.519.519,0,0,1,.4-.193.523.523,0,0,1,.407.852,12.159,12.159,0,0,1-5.855,4.295l-.92.265L52.067,26.4l.625-.487a.544.544,0,0,1,.36-.144l4.332,0L54.932,5.843s-2.882.351-2.891.351a.549.549,0,0,1-.325-.083L45.194,2.44A3.425,3.425,0,0,0,43.517,2c-.107,0-.212,0-.319.014L41.3,2.189a.532.532,0,0,1-.563-.474.522.522,0,0,1,.472-.567L43.1.973c.144-.014.283-.02.421-.02a4.478,4.478,0,0,1,2.19.575l6.409,3.608,2.658-.329-.013-.47A3.275,3.275,0,0,1,57.647.99L65.674,0a.532.532,0,0,1,.571.453.522.522,0,0,1-.454.584l-8.017.987a2.24,2.24,0,0,0-1.951,2.5l2.753,22.365A2.244,2.244,0,0,0,60.8,28.86a2.547,2.547,0,0,0,.276-.016l8.026-.987a.534.534,0,0,1,.572.455.513.513,0,0,1-.106.385.521.521,0,0,1-.349.2L61.2,29.88a3.058,3.058,0,0,1-.4.026,3.289,3.289,0,0,1-3.226-2.673l-.079-.422-4.943.005,1.909,1.645a2.767,2.767,0,0,1,.29,3.906l-.53.616a3.424,3.424,0,0,1-4.047.851l-.357-.169L48.148,35.6a3.408,3.408,0,0,1-2.583,1.185,3.442,3.442,0,0,1-1.463-.331l-.357-.169-1.664,1.932A3.414,3.414,0,0,1,39.5,39.4" transform="translate(0.321 0)" fill="#050605"/>
    <path id="Path_55693" data-name="Path 55693" d="M62.963,26.013A2.535,2.535,0,1,1,65.5,23.479a2.537,2.537,0,0,1-2.535,2.534m0-4.023a1.488,1.488,0,1,0,1.489,1.489,1.49,1.49,0,0,0-1.489-1.489" transform="translate(0.895 0.31)" fill="#050605"/>
    <path id="Path_55694" data-name="Path 55694" d="M5.979,26.013a2.535,2.535,0,1,1,2.535-2.534,2.538,2.538,0,0,1-2.535,2.534m0-4.023a1.488,1.488,0,1,0,1.489,1.489A1.49,1.49,0,0,0,5.979,21.99" transform="translate(0.051 0.31)" fill="#050605"/>
  </g>
</svg>
