<svg xmlns="http://www.w3.org/2000/svg" xmlns:xlink="http://www.w3.org/1999/xlink" width="64.362" height="70" viewBox="0 0 64.362 70">
  <defs>
    <clipPath id="clip-path">
      <rect id="Rectangle_8939" data-name="Rectangle 8939" width="64.362" height="70" fill="none"/>
    </clipPath>
  </defs>
  <g id="Consultative" transform="translate(0 0)">
    <g id="Group_22957" data-name="Group 22957" transform="translate(0 0)" clip-path="url(#clip-path)">
      <path id="Path_55695" data-name="Path 55695" d="M38.88,45.167A2.271,2.271,0,0,1,36.611,42.9V41.51l-.633-.18a19.354,19.354,0,0,1-4.146-1.718l-.576-.321-.982.984a2.271,2.271,0,0,1-3.21,0l-3.441-3.444a2.274,2.274,0,0,1,0-3.207l.983-.984-.322-.574a19.428,19.428,0,0,1-1.716-4.142l-.18-.633H21a2.273,2.273,0,0,1-2.269-2.269V20.147A2.272,2.272,0,0,1,21,17.878h1.389l.18-.633A19.415,19.415,0,0,1,24.283,13.1l.322-.575-.982-.983a2.274,2.274,0,0,1,0-3.207l3.444-3.444a2.269,2.269,0,0,1,3.209,0l.982.982.575-.321a19.5,19.5,0,0,1,4.147-1.722l.632-.18V2.268A2.271,2.271,0,0,1,38.88,0h4.869a2.271,2.271,0,0,1,2.268,2.268V3.653l.633.18a19.472,19.472,0,0,1,4.143,1.721l.576.322.981-.984a2.271,2.271,0,0,1,3.21,0l3.446,3.442a2.275,2.275,0,0,1,0,3.208l-.981.984.32.575a19.577,19.577,0,0,1,1.718,4.143l.179.632h1.385A2.271,2.271,0,0,1,63.9,20.147V25.02a2.272,2.272,0,0,1-2.269,2.269H60.241l-.179.632a19.505,19.505,0,0,1-1.719,4.143l-.321.574.983.984a2.273,2.273,0,0,1,0,3.207l-3.447,3.445a2.268,2.268,0,0,1-3.208,0l-.982-.981-.575.321a19.345,19.345,0,0,1-4.142,1.717l-.634.18V42.9a2.271,2.271,0,0,1-2.268,2.269ZM35.425,13.019c-.107.061-.227.139-.365.232a10.469,10.469,0,0,0,2.264,18.5.532.532,0,0,1,.345.5V42.9a1.211,1.211,0,0,0,1.21,1.21h4.869a1.211,1.211,0,0,0,1.209-1.21V32.245a.534.534,0,0,1,.345-.5,10.469,10.469,0,0,0,2.26-18.5c-.134-.092-.255-.169-.36-.231l-1.351-.8.035,1.57c0,.2.018.395.027.5.01.138.016.217.016.3v6.613a4.922,4.922,0,0,1-4.581,4.9,4.933,4.933,0,0,1-4.656-4.9V14.582c0-.079.006-.158.012-.255.011-.142.026-.332.031-.532l.044-1.572ZM46.251,11.6a3.831,3.831,0,0,1,1.91.777,11.527,11.527,0,0,1-1.64,20.012l-.5.235v7.82l1.149-.383a18.385,18.385,0,0,0,3.988-1.894.532.532,0,0,1,.659.073L53.1,39.525a1.209,1.209,0,0,0,1.708,0l3.45-3.448a1.215,1.215,0,0,0,0-1.705l-1.29-1.29a.525.525,0,0,1-.074-.657,18.47,18.47,0,0,0,2.4-5.785.525.525,0,0,1,.516-.413h1.815a1.212,1.212,0,0,0,1.211-1.209V20.147a1.211,1.211,0,0,0-1.21-1.21H59.811a.525.525,0,0,1-.516-.412,18.43,18.43,0,0,0-2.4-5.785.525.525,0,0,1,.074-.657L58.258,10.8a1.215,1.215,0,0,0,0-1.71L54.81,5.642a1.209,1.209,0,0,0-1.708,0L51.813,6.928A.529.529,0,0,1,51.155,7a18.3,18.3,0,0,0-5.783-2.4.527.527,0,0,1-.413-.517V2.268a1.211,1.211,0,0,0-1.21-1.209H38.88a1.211,1.211,0,0,0-1.21,1.209V4.083a.528.528,0,0,1-.412.518A18.355,18.355,0,0,0,31.47,7a.543.543,0,0,1-.282.082.521.521,0,0,1-.375-.157L29.526,5.642a1.21,1.21,0,0,0-1.712,0L24.371,9.085a1.217,1.217,0,0,0,0,1.714l1.283,1.284a.526.526,0,0,1,.073.657,18.322,18.322,0,0,0-2.4,5.783.525.525,0,0,1-.517.413H21a1.211,1.211,0,0,0-1.209,1.211V25.02A1.21,1.21,0,0,0,21,26.23h1.819a.525.525,0,0,1,.517.413,18.3,18.3,0,0,0,2.4,5.784.529.529,0,0,1-.073.659l-1.287,1.285a1.217,1.217,0,0,0,0,1.714l3.44,3.441a1.209,1.209,0,0,0,1.708,0l1.289-1.29a.531.531,0,0,1,.658-.073,18.374,18.374,0,0,0,3.993,1.894l1.148.383V32.621l-.5-.235a11.525,11.525,0,0,1-1.645-20.01,3.847,3.847,0,0,1,1.913-.778,1.289,1.289,0,0,1,.66.171c.783.451.81,1.561.733,2.588l-.014.212v6.624A3.839,3.839,0,0,0,41.23,25.03l.085.008.085-.008a3.837,3.837,0,0,0,3.471-3.835V14.549l-.008-.132c-.082-1.085-.053-2.2.729-2.646a1.293,1.293,0,0,1,.659-.171" transform="translate(0.467 0)" fill="#050605"/>
      <path id="Path_55696" data-name="Path 55696" d="M49.71,60.856a.529.529,0,0,1-.373-.9.53.53,0,0,1,.906.373.518.518,0,0,1-.154.372.534.534,0,0,1-.379.159" transform="translate(1.226 1.49)" fill="#050605"/>
      <path id="Path_55697" data-name="Path 55697" d="M37.523,68.868a17.416,17.416,0,0,1-4.786-.951c-.59-.172-1.181-.342-1.825-.518L16.406,63.52l-.434-.12a2.289,2.289,0,0,0-.839-.124H11.351l-.2.6a2.843,2.843,0,0,1-2.7,1.951H2.844A2.848,2.848,0,0,1,0,62.981V48.272a2.85,2.85,0,0,1,2.844-2.849H8.449a2.842,2.842,0,0,1,2.7,1.956l.2.6h2.354a4.859,4.859,0,0,0,2.259-.482,18.442,18.442,0,0,1,6.756-1.531c3.337,0,6.4,1.415,9.624,4.455a3.655,3.655,0,0,0,.667.561l.08.043.087.026a2.732,2.732,0,0,0,.785.072h7.622a4.269,4.269,0,0,1,3.1,1.32l.451.466,11.7-6.009a4.819,4.819,0,0,1,2.188-.54,4.093,4.093,0,0,1,3.529,1.918,4.267,4.267,0,0,1-1.327,5.733l-4.857,3.46a.53.53,0,1,1-.615-.864l4.857-3.459a3.218,3.218,0,0,0,1.04-4.314,2.981,2.981,0,0,0-2.6-1.416,3.819,3.819,0,0,0-1.729.424l-11.671,6,.146.657a4.3,4.3,0,0,1-4.206,5.247H29.234a.53.53,0,0,1,0-1.06H41.586a3.25,3.25,0,1,0,0-6.5H33.964a2.559,2.559,0,0,1-2.274-.924c-3.083-2.9-5.925-4.223-9.012-4.223a17.1,17.1,0,0,0-6.325,1.448,5.755,5.755,0,0,1-2.566.553l-2.489,0V62.217h3.835a3.082,3.082,0,0,1,1.125.163l.42.116,14.507,3.88c.616.166,1.176.328,1.714.485l.115.033a16.513,16.513,0,0,0,4.511.913,9.112,9.112,0,0,0,5.2-1.927L45.5,63.9a.53.53,0,0,1,.616.863L43.347,66.74a10.379,10.379,0,0,1-5.824,2.128M2.844,46.482a1.79,1.79,0,0,0-1.785,1.791V62.981a1.788,1.788,0,0,0,1.785,1.786H8.449a1.79,1.79,0,0,0,1.79-1.786V48.272a1.792,1.792,0,0,0-1.79-1.791Z" transform="translate(0 1.132)" fill="#050605"/>
    </g>
  </g>
</svg>
