<svg xmlns="http://www.w3.org/2000/svg" xmlns:xlink="http://www.w3.org/1999/xlink" width="70" height="70" viewBox="0 0 70 70">
  <defs>
    <clipPath id="clip-path">
      <rect id="Rectangle_8940" data-name="Rectangle 8940" width="70" height="70" fill="none"/>
    </clipPath>
  </defs>
  <g id="Accessible" transform="translate(0 0)">
    <g id="Group_22958" data-name="Group 22958" transform="translate(0 0)" clip-path="url(#clip-path)">
      <path id="Path_55698" data-name="Path 55698" d="M12.58,67.2a6.134,6.134,0,0,1,0-12.268H29.4a5.076,5.076,0,0,0,0-10.152H17.89l-.208.581a3.331,3.331,0,1,1-4.834-3.978l.758-.451L2.447,22.617a14.541,14.541,0,1,1,24.209-.029L15.477,40.93l.757.45a3.335,3.335,0,0,1,1.447,1.758l.208.58H29.4a6.135,6.135,0,1,1,0,12.269H12.58a5.075,5.075,0,0,0,0,10.151H26.594a.529.529,0,0,1,0,1.059Zm1.963-25.222a2.273,2.273,0,1,0,2.272,2.273,2.276,2.276,0,0,0-2.272-2.273m0-40.916A13.484,13.484,0,0,0,3.325,22.022l11.218,18.4L25.748,22.041A13.484,13.484,0,0,0,14.543,1.059" transform="translate(0 0)" fill="#050605"/>
      <path id="Path_55699" data-name="Path 55699" d="M14.338,20.471a6.134,6.134,0,1,1,6.134-6.134,6.141,6.141,0,0,1-6.134,6.134m0-11.21a5.075,5.075,0,1,0,5.074,5.075,5.082,5.082,0,0,0-5.074-5.075" transform="translate(0.204 0.205)" fill="#050605"/>
      <path id="Path_55700" data-name="Path 55700" d="M54.517,69.434a3.339,3.339,0,0,1-3.14-2.222l-.207-.58H38.264a.529.529,0,1,1,0-1.059H51.17l.207-.581A3.349,3.349,0,0,1,52.8,63.249l.764-.461L42.42,45.31a14.541,14.541,0,1,1,24.2-.014L55.472,62.788l.764.461a3.331,3.331,0,0,1-1.719,6.185m0-5.6A2.273,2.273,0,1,0,56.79,66.1a2.276,2.276,0,0,0-2.273-2.272m0-1.516L65.749,44.7a13.482,13.482,0,1,0-22.45.022c.006.008,11.218,17.6,11.218,17.6" transform="translate(0.94 0.566)" fill="#050605"/>
      <path id="Path_55701" data-name="Path 55701" d="M54.258,43.167a6.135,6.135,0,1,1,6.134-6.135,6.141,6.141,0,0,1-6.134,6.135m0-11.211a5.075,5.075,0,1,0,5.075,5.075,5.082,5.082,0,0,0-5.075-5.075" transform="translate(1.199 0.77)" fill="#050605"/>
      <path id="Path_55702" data-name="Path 55702" d="M32.112,65.589a.529.529,0,1,1,.53-.53.53.53,0,0,1-.53.53" transform="translate(0.787 1.608)" fill="#050605"/>
    </g>
  </g>
</svg>
